<?xml version="1.0" encoding="UTF-8" standalone="no"?>
<svg
   xmlns:dc="http://purl.org/dc/elements/1.1/"
   xmlns:cc="http://creativecommons.org/ns#"
   xmlns:rdf="http://www.w3.org/1999/02/22-rdf-syntax-ns#"
   xmlns:svg="http://www.w3.org/2000/svg"
   xmlns="http://www.w3.org/2000/svg"
   xmlns:sodipodi="http://sodipodi.sourceforge.net/DTD/sodipodi-0.dtd"
   xmlns:inkscape="http://www.inkscape.org/namespaces/inkscape"
   version="1.1"
   id="svg2"
   xml:space="preserve"
   width="302.36267"
   height="151.18133"
   viewBox="0 75.59066 302.36267 151.18133"
   sodipodi:docname="fa65b80e1f7d6aa4909c152404d65652.ai"><metadata
     id="metadata8"><rdf:RDF><cc:Work
         rdf:about=""><dc:format>image/svg+xml</dc:format><dc:type
           rdf:resource="http://purl.org/dc/dcmitype/StillImage" /></cc:Work></rdf:RDF></metadata><defs
     id="defs6"><clipPath
       clipPathUnits="userSpaceOnUse"
       id="clipPath18"><path
         d="M 0,226.772 H 226.772 V 0 H 0 Z"
         id="path16" /></clipPath><clipPath
       clipPathUnits="userSpaceOnUse"
       id="clipPath26"><path
         d="m 54.433,81.1433 h 0.3749 v -0.01 H 54.433 Z"
         id="path24" /></clipPath><clipPath
       clipPathUnits="userSpaceOnUse"
       id="clipPath38"><path
         d="m 92.3592,135.941 h 0.5167 v -0.013 h -0.5167 z"
         id="path36" /></clipPath></defs><sodipodi:namedview
     pagecolor="#ffffff"
     bordercolor="#666666"
     borderopacity="1"
     objecttolerance="10"
     gridtolerance="10"
     guidetolerance="10"
     inkscape:pageopacity="0"
     inkscape:pageshadow="2"
     inkscape:window-width="640"
     inkscape:window-height="480"
     id="namedview4" /><g
     id="g10"
     inkscape:groupmode="layer"
     inkscape:label="fa65b80e1f7d6aa4909c152404d65652"
     transform="matrix(1.3333333,0,0,-1.3333333,0,302.36267)"><g
       id="g12"><g
         id="g14"
         clip-path="url(#clipPath18)"><g
           id="g20"><g
             id="g22" /><g
             id="g30"><g
               clip-path="url(#clipPath26)"
               opacity="0.300003"
               id="g28" /></g></g><g
           id="g32"><g
             id="g34" /><g
             id="g42"><g
               clip-path="url(#clipPath38)"
               opacity="0.300003"
               id="g40" /></g></g><g
           id="g44"
           transform="translate(109.4766,95.0187)"><path
             d="m 0,0 h 0.754 c 0.5,0 0.94,0.071 0.94,0.685 0,0.544 -0.49,0.63 -0.931,0.63 H 0 Z M -0.855,1.965 H 0.853 C 1.95,1.965 2.55,1.585 2.55,0.616 2.55,-0.171 2.1,-0.549 1.347,-0.617 L 2.581,-2.624 H 1.707 L 0.518,-0.647 H 0 v -1.977 h -0.855 z m 4.63,-2.312 c 0,1.897 -1.373,3.268 -3.07,3.268 -1.694,0 -3.062,-1.371 -3.062,-3.268 0,-1.898 1.368,-3.267 3.062,-3.267 1.697,0 3.07,1.369 3.07,3.267 m -7.121,0 c 0,2.233 1.816,4.05 4.051,4.05 2.237,0 4.054,-1.817 4.054,-4.05 0,-2.233 -1.817,-4.054 -4.054,-4.054 -2.235,0 -4.051,1.821 -4.051,4.054"
             style="fill:#007dc5;fill-opacity:1;fill-rule:nonzero;stroke:none"
             id="path46" /></g><g
           id="g48"
           transform="translate(25.6953,135.9411)"><path
             d="m 0,0 c -6.058,0 -11.194,-3.938 -12.995,-9.393 -0.04,-0.122 -0.079,-0.245 -0.116,-0.368 l -0.299,-1.173 -7.597,-32.908 h 19.139 c 5.719,0 10.59,3.625 12.441,8.702 l 0.723,3.133 L 18.687,0 Z"
             style="fill:#0551a0;fill-opacity:1;fill-rule:nonzero;stroke:none"
             id="path50" /></g><g
           id="g52"
           transform="translate(61.8018,146.904)"><path
             d="m 0,0 c -6.26,0 -11.534,-4.205 -13.162,-9.941 -0.122,-0.431 -0.224,-0.868 -0.305,-1.313 l -12.584,-54.517 h 18.682 c 6.402,0 11.776,4.399 13.269,10.339 v -0.002 H 5.906 L 18.704,0 Z"
             style="fill:#f37123;fill-opacity:1;fill-rule:nonzero;stroke:none"
             id="path54" /></g><g
           id="g56"
           transform="translate(92.876,135.9411)"><path
             d="m 0,0 c -5.846,0 -10.833,-3.667 -12.792,-8.824 -0.1,-0.265 -0.446,-1.353 -0.446,-1.353 l -7.772,-33.665 h 18.686 c 6.421,0 11.808,4.424 13.283,10.39 0,-0.002 0,-0.004 -0.002,-0.005 h 0.002 L 18.683,0 Z"
             style="fill:#52b848;fill-opacity:1;fill-rule:nonzero;stroke:none"
             id="path58" /></g><g
           id="g60"
           transform="translate(17.3589,123.797)"><path
             d="m 0,0 c -1.054,-0.868 -1.732,-1.93 -1.93,-2.782 l -3.951,-17.844 0.223,0.002 c 1.233,0 2.39,0.437 3.439,1.304 1.056,0.863 1.724,1.922 1.988,3.144 l 1.015,4.533 h 8.485 c 1.23,0 2.392,0.438 3.457,1.304 1.063,0.867 1.737,1.929 2.004,3.16 l 0.048,0.225 H 1.832 l 0.794,3.571 h 12.262 c 1.23,0 2.39,0.434 3.443,1.294 1.05,0.861 1.701,1.944 1.987,3.165 L 20.372,1.303 3.442,1.305 C 2.211,1.305 1.055,0.866 0,0"
             style="fill:#ffffff;fill-opacity:1;fill-rule:nonzero;stroke:none"
             id="path62" /></g><g
           id="g64"
           transform="translate(103.7642,124.0431)"><path
             d="m 0,0 c -0.679,0.681 -1.568,1.027 -2.641,1.027 h -16.92 l -0.028,-0.15 c -0.066,-0.332 -0.098,-0.638 -0.098,-0.932 0,-1.031 0.347,-1.899 1.025,-2.584 0.682,-0.679 1.57,-1.025 2.646,-1.025 h 3.654 l -3.67,-17.208 h 0.228 c 1.229,0 2.383,0.435 3.429,1.294 1.047,0.859 1.706,1.919 1.959,3.148 l 2.715,12.766 H 0.9 l 0.03,0.149 C 0.991,-3.2 1.023,-2.876 1.023,-2.554 1.023,-1.535 0.68,-0.676 0,0"
             style="fill:#ffffff;fill-opacity:1;fill-rule:nonzero;stroke:none"
             id="path66" /></g><g
           id="g68"
           transform="translate(54.1958,120.4093)"><path
             d="M 0,0 H 11.326 L 10.542,-3.59 H -0.791 Z M 12.447,4.691 H 1.008 l 0.006,0.013 h -4.7 l -4.665,-21.942 h 0.227 c 1.229,0 2.384,0.437 3.431,1.301 1.046,0.863 1.705,1.922 1.958,3.147 l 0.952,4.508 H 9.761 c 1.228,0 2.382,0.437 3.43,1.293 1.044,0.857 1.714,1.922 1.991,3.174 l 0.867,3.964 c 0.063,0.31 0.095,0.635 0.095,0.964 0,1.012 -0.347,1.872 -1.04,2.552 -0.692,0.681 -1.585,1.026 -2.657,1.026"
             style="fill:#ffffff;fill-opacity:1;fill-rule:nonzero;stroke:none"
             id="path70" /></g><g
           id="g72"
           transform="translate(175.458,90.8508)"><path
             d="m 0,0 c -0.361,-0.167 -0.832,-0.25 -1.415,-0.25 -2.06,0 -3.088,1.098 -3.088,3.295 v 6.382 h -1.521 v 1.71 h 1.521 v 2.607 l 2.232,0.689 V 11.137 H 0 V 9.427 H -2.271 V 3.171 c 0,-0.946 0.499,-1.419 1.501,-1.419 0.291,0 0.548,0.05 0.77,0.147 z"
             style="fill:#007dc5;fill-opacity:1;fill-rule:nonzero;stroke:none"
             id="path74" /></g><g
           id="g76"
           transform="translate(133.5488,110.2658)"><path
             d="m 0,0 v 7.508 c 0,1.418 -0.785,2.127 -2.357,2.127 -0.835,0 -1.524,-0.11 -2.065,-0.333 V 0 h -2.27 v 10.678 c 1.291,0.529 2.73,0.793 4.313,0.793 3.115,0 4.674,-1.252 4.674,-3.755 V 0 Z"
             style="fill:#007dc5;fill-opacity:1;fill-rule:nonzero;stroke:none"
             id="path78" /></g><g
           id="g80"
           transform="translate(219.5508,110.2658)"><path
             d="m 0,0 v 7.508 c 0,1.418 -0.786,2.127 -2.358,2.127 -0.835,0 -1.523,-0.11 -2.064,-0.333 V 0 h -2.271 v 10.678 c 1.292,0.529 2.731,0.793 4.314,0.793 3.114,0 4.673,-1.252 4.673,-3.755 L 2.294,0 Z"
             style="fill:#007dc5;fill-opacity:1;fill-rule:nonzero;stroke:none"
             id="path82" /></g><g
           id="g84"
           transform="translate(183.9082,97.714)"><path
             d="M 0,0 C -0.013,1.946 -0.848,2.919 -2.502,2.919 -3.394,2.919 -4.094,2.6 -4.608,1.961 -5.15,1.307 -5.43,0.402 -5.443,-0.751 Z m 2.171,-1.209 -7.469,-1.043 c 0.236,-2.03 1.382,-3.047 3.444,-3.047 1.221,0 2.256,0.231 3.106,0.69 l 0.667,-1.71 C 0.902,-6.85 -0.404,-7.113 -2,-7.113 c -1.754,0 -3.117,0.529 -4.09,1.587 -0.959,1.027 -1.438,2.454 -1.438,4.274 0,1.738 0.452,3.143 1.355,4.213 0.918,1.086 2.156,1.627 3.71,1.627 1.448,0 2.588,-0.444 3.423,-1.335 0.818,-0.89 1.229,-2.092 1.229,-3.607 0,-0.375 -0.006,-0.661 -0.018,-0.855"
             style="fill:#007dc5;fill-opacity:1;fill-rule:nonzero;stroke:none"
             id="path86" /></g><g
           id="g88"
           transform="translate(160.8418,119.7546)"><path
             d="m 0,0 c -0.334,0.084 -0.717,0.126 -1.146,0.126 -0.723,0 -1.313,-0.098 -1.774,-0.292 V -9.489 H -5.193 V 1.189 c 1.254,0.529 2.706,0.793 4.359,0.793 0.557,0 0.981,-0.027 1.271,-0.083 z"
             style="fill:#007dc5;fill-opacity:1;fill-rule:nonzero;stroke:none"
             id="path90" /></g><g
           id="g92"
           transform="translate(147.542,91.8205)"><path
             d="m 0,0 c -0.894,-0.812 -2.157,-1.22 -3.782,-1.22 -1.581,0 -2.948,0.351 -4.103,1.055 l 0.903,2.327 c 0.944,-0.647 1.986,-0.971 3.124,-0.971 0.717,0 1.296,0.187 1.737,0.557 0.435,0.368 0.657,0.866 0.657,1.495 0,0.98 -0.779,1.792 -2.344,2.438 -1.188,0.499 -2.028,0.989 -2.512,1.468 -0.817,0.758 -1.224,1.755 -1.224,2.993 0,1.256 0.407,2.262 1.224,3.02 0.828,0.778 1.958,1.164 3.392,1.164 1.482,0 2.758,-0.35 3.833,-1.053 L 0.074,11.168 c -0.83,0.592 -1.733,0.886 -2.711,0.886 -0.682,0 -1.221,-0.185 -1.611,-0.553 -0.375,-0.352 -0.563,-0.803 -0.563,-1.359 0,-0.61 0.223,-1.107 0.662,-1.496 C -3.876,8.388 -3.336,8.092 -2.538,7.761 -1.285,7.225 -0.413,6.734 0.074,6.291 0.905,5.533 1.32,4.508 1.32,3.216 1.32,1.848 0.882,0.776 0,0"
             style="fill:#007dc5;fill-opacity:1;fill-rule:nonzero;stroke:none"
             id="path94" /></g><path
           d="m 197.483,121.507 h 2.297 v -11.241 h -2.297 z m 2.109,2.419 c -0.266,-0.25 -0.584,-0.375 -0.959,-0.375 -0.377,0 -0.698,0.125 -0.961,0.375 -0.266,0.25 -0.395,0.557 -0.395,0.919 0,0.361 0.129,0.666 0.395,0.917 0.263,0.251 0.584,0.375 0.961,0.375 0.375,0 0.693,-0.124 0.959,-0.375 0.262,-0.251 0.394,-0.556 0.394,-0.917 0,-0.362 -0.132,-0.669 -0.394,-0.919"
           style="fill:#007dc5;fill-opacity:1;fill-rule:nonzero;stroke:none"
           id="path96" /><g
           id="g98"
           transform="translate(196.2031,110.5148)"><path
             d="m 0,0 c -0.361,-0.166 -0.837,-0.249 -1.421,-0.249 -2.056,0 -3.085,1.098 -3.085,3.294 v 6.382 h -1.522 v 1.71 h 1.522 v 2.608 l 2.231,0.688 V 11.137 H 0 V 9.427 H -2.275 V 3.172 c 0,-0.946 0.501,-1.42 1.503,-1.42 0.29,0 0.547,0.05 0.772,0.147 z"
             style="fill:#007dc5;fill-opacity:1;fill-rule:nonzero;stroke:none"
             id="path100" /></g><g
           id="g102"
           transform="translate(154.5713,86.1066)"><path
             d="m 0,0 h -2.397 l 1.69,4.484 -4.215,11.242 h 2.545 L 0.064,8.094 C 0.23,7.564 0.363,7.001 0.459,6.403 h 0.043 c 0.082,0.612 0.21,1.175 0.376,1.691 l 2.46,7.632 h 2.544 z"
             style="fill:#007dc5;fill-opacity:1;fill-rule:nonzero;stroke:none"
             id="path104" /></g><g
           id="g106"
           transform="translate(196.1494,98.1447)"><path
             d="m 0,0 v -7.544 h 0.055 v 6.827 C 0.055,-0.465 0.039,-0.221 0,0"
             style="fill:#007dc5;fill-opacity:1;fill-rule:nonzero;stroke:none"
             id="path108" /></g><g
           id="g110"
           transform="translate(203.8457,98.4777)"><path
             d="m 0,0 v -7.877 h -2.344 v 7.659 c 0,1.445 -0.8,2.171 -2.407,2.171 -0.845,0 -1.554,-0.109 -2.099,-0.336 v -9.494 h -2.28 v 7.659 c 0,0.182 -0.009,0.345 -0.036,0.509 -0.173,1.108 -0.963,1.662 -2.371,1.662 -0.845,0 -1.554,-0.109 -2.099,-0.336 v -9.494 h -2.316 V 3.016 c 1.317,0.536 2.779,0.808 4.396,0.808 1.245,0 2.244,-0.19 2.998,-0.581 1.154,0.382 2.417,0.581 3.788,0.581 C -1.59,3.824 0,2.553 0,0"
             style="fill:#007dc5;fill-opacity:1;fill-rule:nonzero;stroke:none"
             id="path112" /></g><g
           id="g114"
           transform="translate(178.4648,118.1418)"><path
             d="m 0,0 v -7.876 h -2.344 v 7.658 c 0,1.445 -0.8,2.171 -2.407,2.171 -0.845,0 -1.554,-0.109 -2.099,-0.336 v -9.493 h -2.28 v 7.658 c 0,0.182 -0.009,0.345 -0.036,0.509 -0.173,1.108 -0.963,1.662 -2.371,1.662 -0.845,0 -1.554,-0.109 -2.099,-0.336 v -9.493 h -2.316 V 3.016 c 1.317,0.536 2.779,0.809 4.396,0.809 1.245,0 2.244,-0.191 2.998,-0.582 1.154,0.382 2.417,0.582 3.788,0.582 C -1.59,3.825 0,2.553 0,0"
             style="fill:#007dc5;fill-opacity:1;fill-rule:nonzero;stroke:none"
             id="path116" /></g><g
           id="g118"
           transform="translate(194.1406,97.6799)"><path
             d="m 0,0 v -7.079 h 0.032 v 6.638 C 0.032,-0.283 0.024,-0.142 0,0"
             style="fill:#007dc5;fill-opacity:1;fill-rule:nonzero;stroke:none"
             id="path120" /></g><g
           id="g122"
           transform="translate(167.4004,91.4816)"><path
             d="m 0,0 c -0.733,-0.586 -1.77,-0.881 -3.101,-0.881 -1.296,0 -2.418,0.254 -3.363,0.762 l 0.739,1.681 c 0.774,-0.467 1.629,-0.701 2.562,-0.701 0.588,0 1.062,0.134 1.424,0.402 0.357,0.266 0.539,0.627 0.539,1.081 0,0.707 -0.639,1.294 -1.921,1.76 -0.975,0.361 -1.663,0.715 -2.061,1.062 -0.67,0.547 -1.004,1.268 -1.004,2.161 0,0.907 0.334,1.635 1.004,2.183 0.679,0.561 1.606,0.841 2.782,0.841 1.214,0 2.26,-0.254 3.142,-0.761 L 0.061,8.068 c -0.68,0.428 -1.422,0.641 -2.222,0.641 -0.561,0 -1.002,-0.134 -1.322,-0.4 -0.307,-0.253 -0.461,-0.58 -0.461,-0.982 0,-0.44 0.182,-0.8 0.542,-1.08 C -3.179,6.06 -2.735,5.846 -2.081,5.606 -1.054,5.22 -0.339,4.866 0.061,4.545 0.742,3.998 1.082,3.257 1.082,2.324 1.082,1.335 0.723,0.562 0,0"
             style="fill:#007dc5;fill-opacity:1;fill-rule:nonzero;stroke:none"
             id="path124" /></g><path
           d="m 124.842,110.266 h -2.111 v 15.179 h 2.111 z"
           style="fill:#007dc5;fill-opacity:1;fill-rule:nonzero;stroke:none"
           id="path126" /><g
           id="g128"
           transform="translate(149.6494,121.507)"><path
             d="m 0,0 c -2.635,0 -4.771,-2.517 -4.771,-5.621 0,-3.104 2.136,-5.62 4.771,-5.62 2.635,0 4.771,2.516 4.771,5.62 C 4.771,-2.517 2.635,0 0,0 m 0,-1.891 c 1.561,0 2.88,-1.708 2.88,-3.73 0,-2.022 -1.319,-3.73 -2.88,-3.73 -1.562,0 -2.88,1.708 -2.88,3.73 0,2.022 1.318,3.73 2.88,3.73"
             style="fill:#007dc5;fill-opacity:1;fill-rule:nonzero;stroke:none"
             id="path130" /></g><g
           id="g132"
           transform="translate(206.4219,121.507)"><path
             d="m 0,0 c -2.635,0 -4.771,-2.517 -4.771,-5.621 0,-3.104 2.136,-5.62 4.771,-5.62 2.635,0 4.771,2.516 4.771,5.62 C 4.771,-2.517 2.635,0 0,0 m 0,-1.891 c 1.562,0 2.88,-1.708 2.88,-3.73 0,-2.022 -1.318,-3.73 -2.88,-3.73 -1.562,0 -2.88,1.708 -2.88,3.73 0,2.022 1.318,3.73 2.88,3.73"
             style="fill:#007dc5;fill-opacity:1;fill-rule:nonzero;stroke:none"
             id="path134" /></g><g
           id="g136"
           transform="translate(138.8955,110.2658)"><path
             d="m 0,0 v 9.693 h -1.58 v 1.556 H 0 v 0.536 c 0,1.58 0.349,3.02 1.302,3.927 0.766,0.744 1.789,1.046 2.742,1.046 0.722,0 1.348,-0.162 1.743,-0.325 l -0.278,-1.58 c -0.303,0.14 -0.721,0.255 -1.302,0.255 -1.743,0 -2.184,-1.535 -2.184,-3.254 V 11.249 H 4.741 V 9.693 H 2.023 L 2.023,0 Z"
             style="fill:#007dc5;fill-opacity:1;fill-rule:nonzero;stroke:none"
             id="path138" /></g><g
           id="g140"
           transform="translate(186.6221,116.2057)"><path
             d="m 0,0 c -2.21,0.047 -4.719,-0.345 -4.719,-2.509 0,-1.313 0.873,-1.935 1.91,-1.935 1.452,0 2.372,0.921 2.695,1.866 C -0.045,-2.372 0,-2.142 0,-1.933 Z m 0.301,-5.687 -0.162,1.404 h -0.07 c -0.62,-0.876 -1.818,-1.657 -3.408,-1.657 -2.256,0 -3.407,1.588 -3.407,3.2 0,2.695 2.394,4.169 6.701,4.144 v 0.231 c 0,0.921 -0.253,2.58 -2.533,2.58 -1.036,0 -2.118,-0.323 -2.902,-0.829 l -0.459,1.335 c 0.92,0.598 2.255,0.99 3.66,0.99 3.408,0 4.237,-2.325 4.237,-4.56 v -4.168 c 0,-0.966 0.047,-1.91 0.184,-2.67 z"
             style="fill:#007dc5;fill-opacity:1;fill-rule:nonzero;stroke:none"
             id="path142" /></g></g></g></g></svg>
